<svg width="80" height="80" viewBox="0 0 80 80" fill="none" xmlns="http://www.w3.org/2000/svg">
<circle cx="40" cy="40" r="40" fill="#35AFBF"/>
<path d="M50.3214 52.3855C50.3214 52.7543 50.6204 53.0534 50.9892 53.0534H56.3321C56.5092 53.0534 56.679 52.983 56.8043 52.8577C56.9296 52.7325 57 52.5626 57 52.3854V51.839H50.3214V52.3855Z" fill="white"/>
<path d="M56.332 40.9106H50.9892C50.6204 40.9106 50.3214 41.2097 50.3214 41.5785V42.125H56.9999V41.5785C56.9999 41.2097 56.7008 40.9106 56.332 40.9106Z" fill="white"/>
<path d="M36.9641 45.1607H43.6426H49.1069V43.3393H36.9641V45.1607Z" fill="white"/>
<path d="M50.9284 28.7677C50.9284 27.7618 50.113 26.9463 49.107 26.9463H30.8927C29.8868 26.9463 29.0713 27.7618 29.0713 28.7677V32.4106H34.2235C35.7364 32.4123 36.9625 33.6383 36.9641 35.1512V42.1249H49.107V41.5784C49.1104 40.565 49.9155 39.7363 50.9284 39.7036V28.7677Z" fill="white"/>
<path d="M43.0355 46.375H36.9641V48.8035H43.0355V46.375Z" fill="white"/>
<path d="M56.9999 43.3393H50.3214V50.625H56.9999V43.3393Z" fill="white"/>
<path d="M23 51.5271C23.0007 52.3698 23.6837 53.0528 24.5263 53.0534H34.2237C35.0663 53.0528 35.7493 52.3698 35.75 51.5271V51.2321H23V51.5271Z" fill="white"/>
<path d="M23 50.0178H35.75V49.4106V45.7678V36.6606H23V50.0178Z" fill="white"/>
<path d="M34.2237 33.625H24.5263C23.6837 33.6257 23.0007 34.3087 23 35.1513V35.4464H35.75V35.1513C35.7493 34.3087 35.0663 33.6257 34.2237 33.625Z" fill="white"/>
<path d="M46.0712 50.0176H36.9641V51.2319H46.6784V50.6248C46.6783 50.2895 46.4065 50.0176 46.0712 50.0176Z" fill="white"/>
</svg>
