<svg width="80" height="80" viewBox="0 0 80 80" fill="none" xmlns="http://www.w3.org/2000/svg">
<circle cx="40" cy="40" r="40" fill="#35AFBF"/>
<path d="M48.2239 45.1889C47.0137 46.851 45.0533 47.9336 42.8447 47.9336H39.7455C38.675 47.9336 37.7633 47.2539 37.4181 46.3026C36.9919 46.1755 36.574 46.0105 36.1663 45.8078C35.3027 45.3788 34.5186 44.7975 33.8283 44.0774C29.351 45.061 26 49.0505 26 53.8234V54.4472C26 55.3048 26.6952 56 27.5528 56H51.6449C52.5025 56 53.1977 55.3048 53.1977 54.4472V53.8234C53.1977 50.1363 51.1978 46.9166 48.2239 45.1889Z" fill="white"/>
<path d="M32.178 38.4349C32.8454 38.4349 33.4263 38.065 33.7273 37.5192C33.7352 37.5408 33.7432 37.5622 33.7513 37.5837C33.7537 37.5902 33.7561 37.5966 33.7585 37.6031C34.4645 39.4614 35.8382 41.0193 37.6496 41.6999C38.0877 41.0038 38.8624 40.5409 39.7457 40.5409H42.8448C43.154 40.5409 43.4417 40.4537 43.6939 40.3127C44.1175 40.0758 44.4984 39.4749 44.6951 39.1564C45.0099 38.6467 45.2538 38.1068 45.4701 37.5182C45.5916 37.7389 45.7587 37.9309 45.959 38.0814V38.8413C45.959 40.5584 44.562 41.9555 42.8448 41.9555H39.7457C39.1598 41.9555 38.6848 42.4305 38.6848 43.0164C38.6848 43.6023 39.1598 44.0772 39.7457 44.0772H42.8448C45.7319 44.0772 48.0807 41.7284 48.0807 38.8413V38.0814C48.5101 37.7587 48.788 37.2453 48.788 36.6668V33.4679V32.2413C48.788 31.6509 48.4984 31.1286 48.0539 30.8075C47.7091 26.4447 44.0488 23 39.5989 23C35.149 23 31.4887 26.4447 31.144 30.8074C30.6994 31.1286 30.4099 31.6509 30.4099 32.2412V36.6667C30.4099 37.646 31.2055 38.4349 32.178 38.4349ZM39.5989 25.1218C42.8931 25.1218 45.6101 27.6392 45.9277 30.8513C45.7192 31.0153 45.5485 31.2249 45.4308 31.4654C44.4297 28.8537 42.1951 27.0354 39.5989 27.0354C36.9466 27.0354 34.7478 28.9162 33.7709 31.455C33.7695 31.4584 33.7683 31.4619 33.767 31.4655C33.6493 31.225 33.4785 31.0153 33.27 30.8513C33.5878 27.6392 36.3048 25.1218 39.5989 25.1218Z" fill="white"/>
</svg>
