<svg width="80" height="80" viewBox="0 0 80 80" fill="none" xmlns="http://www.w3.org/2000/svg">
<circle cx="40" cy="40" r="40" fill="#35AFBF"/>
<g clip-path="url(#clip0_0_180)">
<path d="M42.2069 50.5164V48.2477H24V50.5255C24 52.5883 25.6669 54.293 27.7299 54.293H44.0419C43.8854 54.1508 43.7346 54.026 43.5921 53.8832C42.7011 52.9895 42.2027 51.7782 42.2069 50.5164V50.5164Z" fill="white"/>
<path d="M36.891 36.7634L39.5331 38.5773L42.1854 36.7634C42.9107 36.2686 43.4869 35.1521 43.4869 34.2742V30.5259L39.5397 28.5737L35.5925 30.5209V34.2742C35.5925 35.1518 36.1654 36.2686 36.891 36.7634ZM37.4858 33.2207C37.6811 33.0274 37.9965 33.0287 38.1898 33.2243L38.9833 34.0255L40.893 32.1161C41.0874 31.9217 41.4028 31.9217 41.5972 32.1164C41.7917 32.3109 41.7914 32.6262 41.5969 32.8207L39.3336 35.0851C39.2402 35.1788 39.1138 35.2321 38.9816 35.2327H38.9805C38.8477 35.2318 38.7207 35.1782 38.6279 35.0832L37.4822 33.9258C37.2889 33.7299 37.2905 33.4146 37.4858 33.2207Z" fill="white"/>
<path d="M54.3612 24.7068H54.3453C52.8826 24.7068 51.6661 25.929 51.6661 27.3925V31.9612H57.0001V27.3836C57.0068 25.9173 55.8275 24.721 54.3612 24.7068V24.7068Z" fill="white"/>
<path d="M31.6432 24.7068C30.2599 24.7068 29.1342 25.8176 29.1342 27.18L28.9873 47.2521H42.7047C42.9839 47.2632 43.2042 47.4935 43.2025 47.7733V50.5164C43.1975 52.5903 44.8694 54.2781 46.943 54.2931H46.9555C49.0216 54.2781 50.6843 52.5912 50.6702 50.525V27.3933C50.6702 26.3468 51.1411 25.4181 51.8487 24.7068L31.6432 24.7068ZM34.5969 30.2104C34.5905 30.0231 34.693 29.8489 34.86 29.7634L39.3184 27.5722C39.4553 27.5044 39.6159 27.5044 39.7529 27.5722L44.2193 29.7695C44.3863 29.855 44.4888 30.029 44.4827 30.2165V34.2742C44.4827 35.4819 43.7456 36.9057 42.7474 37.5861L39.8226 39.5916C39.7406 39.648 39.6434 39.6783 39.544 39.6783C39.4448 39.6783 39.3481 39.6483 39.2667 39.5916L36.3332 37.5861C35.3356 36.9054 34.5969 35.4816 34.5969 34.2742V30.2104ZM46.6163 44.9762H32.9611C32.6861 44.9762 32.4633 44.7534 32.4633 44.4784C32.4633 44.2034 32.6861 43.9806 32.9611 43.9806H46.6163C46.8913 43.9806 47.1141 44.2034 47.1141 44.4784C47.1141 44.7534 46.8913 44.9762 46.6163 44.9762ZM46.6163 42.3448H32.9611C32.6861 42.3448 32.4633 42.122 32.4633 41.8469C32.4633 41.5719 32.6861 41.3491 32.9611 41.3491H46.6163C46.8913 41.3491 47.1141 41.5719 47.1141 41.8469C47.1141 42.122 46.8913 42.3448 46.6163 42.3448Z" fill="white"/>
</g>
<defs>
<clipPath id="clip0_0_180">
<rect width="33" height="33" fill="white" transform="translate(24 23)"/>
</clipPath>
</defs>
</svg>
