<svg width="80" height="80" viewBox="0 0 80 80" fill="none" xmlns="http://www.w3.org/2000/svg">
<circle cx="40" cy="40" r="40" fill="#35AFBF"/>
<g clip-path="url(#clip0_0_170)">
<path d="M38.8832 28.8748C33.6139 29.4004 29.4113 33.6029 28.8857 38.8723H33.2981V41.1063H28.8857C29.4113 46.3756 33.6139 50.5782 38.8832 51.1037V46.6914H41.1172V51.1037C46.3865 50.5782 50.589 46.3756 51.1146 41.1063H46.7023V38.8723H51.1146C50.589 33.6029 46.3865 29.4004 41.1172 28.8748V33.2872H38.8832V28.8748ZM41.1172 35.5212V39.3915L43.9708 41.294L42.7316 43.1527L38.8831 40.5871V35.5212H41.1172Z" fill="white"/>
<path d="M55.2168 28.6282L58.314 28.8171L58.45 26.5872L51.5975 26.1693L51.1722 32.4621L53.4012 32.6127L53.5672 30.1566C55.6347 33.0017 56.7549 36.422 56.7549 39.9894C56.7549 49.2282 49.2385 56.7446 39.9996 56.7446C30.7608 56.7446 23.2444 49.2282 23.2444 39.9894C23.2444 30.7505 30.7608 23.2341 39.9996 23.2341V21C29.5048 21 21.0103 29.493 21.0103 39.9893C21.0103 56.7541 41.4293 65.4147 53.427 53.4166C57.0136 49.83 58.9889 45.0614 58.9889 39.9893C58.9887 35.8551 57.662 31.8951 55.2168 28.6282V28.6282Z" fill="white"/>
</g>
<defs>
<clipPath id="clip0_0_170">
<rect width="38" height="38" fill="white" transform="translate(21 21)"/>
</clipPath>
</defs>
</svg>
