<svg width="103" height="38" viewBox="0 0 103 38" fill="none" xmlns="http://www.w3.org/2000/svg">
<path d="M55.8839 12.14V26H53.2799V18.776L53.4059 14.723H53.3639L49.5209 26H47.1479L43.3259 14.723H43.2839L43.4309 18.776V26H40.8059V12.14H45.0059L47.5049 19.7L48.3869 22.829H48.4289L49.3319 19.721L51.8099 12.14H55.8839ZM65.0975 19.301C65.0975 18.699 64.9225 18.23 64.5725 17.894C64.2365 17.558 63.7885 17.39 63.2285 17.39C62.7105 17.39 62.2555 17.523 61.8635 17.789C61.4715 18.055 61.1845 18.496 61.0025 19.112L58.5455 18.356C58.7835 17.432 59.3015 16.69 60.0995 16.13C60.9115 15.57 61.9965 15.29 63.3545 15.29C64.7265 15.29 65.8325 15.619 66.6725 16.277C67.5265 16.921 67.9535 17.887 67.9535 19.175V23.438C67.9535 23.97 68.2055 24.236 68.7095 24.236C68.9475 24.236 69.1715 24.201 69.3815 24.131L69.2135 25.916C68.8495 26.098 68.3945 26.189 67.8485 26.189C67.2465 26.189 66.7215 26.063 66.2735 25.811C65.8395 25.559 65.5455 25.181 65.3915 24.677C65.0555 25.181 64.5725 25.566 63.9425 25.832C63.3265 26.084 62.6895 26.21 62.0315 26.21C60.9675 26.21 60.1205 25.972 59.4905 25.496C58.8745 25.006 58.5665 24.299 58.5665 23.375C58.5665 22.591 58.8185 21.954 59.3225 21.464C59.8265 20.96 60.5475 20.617 61.4855 20.435L65.0975 19.7V19.301ZM61.4435 23.102C61.4435 23.452 61.5695 23.718 61.8215 23.9C62.0875 24.082 62.4025 24.173 62.7665 24.173C63.1725 24.173 63.5505 24.11 63.9005 23.984C64.2505 23.858 64.5375 23.648 64.7615 23.354C64.9855 23.046 65.0975 22.64 65.0975 22.136V21.485L62.8925 21.926C62.4165 22.024 62.0525 22.157 61.8005 22.325C61.5625 22.479 61.4435 22.738 61.4435 23.102ZM74.0481 10.901V20.288L78.5841 15.5H81.8601L77.9121 19.616L82.1121 26H78.8571L75.9591 21.359L74.0481 23.396V26H71.1711V10.901H74.0481ZM88.1632 26.21C86.5112 26.21 85.1882 25.734 84.1942 24.782C83.2002 23.816 82.7032 22.472 82.7032 20.75C82.7032 19.602 82.9272 18.622 83.3752 17.81C83.8232 16.998 84.4462 16.375 85.2442 15.941C86.0562 15.507 86.9802 15.29 88.0162 15.29C89.0802 15.29 89.9832 15.507 90.7252 15.941C91.4672 16.361 92.0342 16.942 92.4262 17.684C92.8182 18.412 93.0142 19.245 93.0142 20.183C93.0142 20.463 93.0072 20.729 92.9932 20.981C92.9792 21.233 92.9582 21.457 92.9302 21.653H85.5172C85.6292 22.465 85.9092 23.074 86.3572 23.48C86.8192 23.872 87.4142 24.068 88.1422 24.068C88.7582 24.068 89.2552 23.949 89.6332 23.711C90.0112 23.473 90.3052 23.144 90.5152 22.724L92.8042 23.606C92.4682 24.432 91.8802 25.076 91.0402 25.538C90.2002 25.986 89.2412 26.21 88.1632 26.21ZM87.9952 17.411C86.6372 17.411 85.8182 18.16 85.5382 19.658H90.2632C90.1792 18.93 89.9412 18.377 89.5492 17.999C89.1712 17.607 88.6532 17.411 87.9952 17.411ZM95.4524 26V15.5H97.9514L98.1404 17.558C98.4064 16.844 98.8054 16.291 99.3374 15.899C99.8834 15.493 100.569 15.29 101.395 15.29C101.885 15.29 102.263 15.367 102.529 15.521L102.193 17.936C102.053 17.894 101.878 17.859 101.668 17.831C101.472 17.789 101.213 17.768 100.891 17.768C100.457 17.768 100.044 17.873 99.6524 18.083C99.2744 18.279 98.9594 18.587 98.7074 19.007C98.4554 19.413 98.3294 19.931 98.3294 20.561V26H95.4524Z" fill="#252626"/>
<path d="M27.7438 20.9904C30.886 21.8794 32.7856 25.2704 30.7581 27.8302C29.8184 29.0166 28.6976 30.0628 27.4267 30.9259C24.5075 32.9083 20.9829 33.7981 17.4726 33.4388C13.9622 33.0796 10.6909 31.4943 8.23383 28.9617C5.77672 26.4291 4.29113 23.1113 4.03825 19.5917C3.78537 16.0721 4.7814 12.5761 6.85121 9.7182C8.92102 6.86035 11.9321 4.82368 15.355 3.96629C18.7779 3.1089 22.3935 3.48569 25.5661 5.03041C26.9474 5.70295 28.2062 6.57813 29.3059 7.61803C31.6785 9.86172 30.2832 13.4895 27.3003 14.8185L23.9249 16.3224C22.8062 16.8208 21.4905 16.1987 20.3894 15.6626C19.7179 15.3357 18.9528 15.256 18.2284 15.4374C17.504 15.6189 16.8667 16.0499 16.4287 16.6547C15.9906 17.2595 15.7798 17.9994 15.8334 18.7443C15.8869 19.4891 16.2013 20.1913 16.7213 20.7273C17.2413 21.2632 17.9336 21.5987 18.6765 21.6748C19.4194 21.7508 20.1653 21.5625 20.7831 21.1429C21.7963 20.4549 23.0096 19.6512 24.188 19.9845L27.7438 20.9904Z" fill="#35AFBF"/>
</svg>
