<svg width="155" height="31" viewBox="0 0 155 31" fill="none" xmlns="http://www.w3.org/2000/svg">
<path d="M21.8994 25.5718L1.22469 11.3104C-0.870442 9.8652 -0.158233 6.85618 2.45435 6.14858L24.4279 0.184715C24.8934 0.0167579 25.3922 -0.0377631 25.8829 0.0256783C26.3737 0.0891197 26.8422 0.268693 27.2497 0.549495C27.6572 0.830297 27.9918 1.20423 28.2258 1.64025C28.4597 2.07628 28.5864 2.56183 28.5951 3.05659L27.2929 23.2807C27.1384 25.6813 23.9946 27.0169 21.8994 25.5718Z" fill="#E9327C"/>
<path d="M15.3421 29.0923L3.16194 5.27252C2.88352 4.72759 2.761 4.11636 2.80789 3.50622C2.85478 2.89609 3.06927 2.31075 3.4277 1.81477C3.78612 1.31879 4.27456 0.931438 4.83915 0.695421C5.40374 0.459403 6.02255 0.383896 6.62732 0.477224L29.2001 3.96105C29.7198 4.04126 30.2131 4.24369 30.6393 4.55168C31.0655 4.85967 31.4125 5.26443 31.6518 5.73268C31.8911 6.20093 32.0159 6.71929 32.0158 7.24514C32.0157 7.77099 31.8908 8.28932 31.6514 8.75749L21.2529 29.0934C20.9737 29.6368 20.5501 30.0926 20.0286 30.4109C19.5072 30.7291 18.908 30.8975 18.2971 30.8973C17.6862 30.8972 17.0872 30.7287 16.5659 30.4102C16.0445 30.0918 15.6211 29.6357 15.3421 29.0923Z" fill="#1DACE3"/>
<path d="M28.5398 3.85843L17.2874 2.1217L3.47197 5.87289L8.98639 16.6609L21.8995 25.5715C22.1844 25.7659 22.4977 25.9148 22.8283 26.0129L27.7331 16.4212L28.5398 3.85843Z" fill="#001A49"/>
<path d="M85.5359 6.64292C85.5359 6.22467 85.66 5.81581 85.8923 5.46805C86.1247 5.12028 86.455 4.84923 86.8414 4.68917C87.2278 4.52911 87.653 4.48724 88.0632 4.56883C88.4734 4.65043 88.8503 4.85184 89.146 5.14759C89.4418 5.44334 89.6432 5.82015 89.7248 6.23036C89.8064 6.64058 89.7645 7.06578 89.6044 7.45219C89.4444 7.83861 89.1733 8.16888 88.8255 8.40125C88.4778 8.63362 88.0689 8.75765 87.6507 8.75765C87.0916 8.75195 86.557 8.52732 86.1616 8.13196C85.7663 7.7366 85.5416 7.20202 85.5359 6.64292ZM85.8886 9.79139H89.4139V21.5393H85.8886V9.79139Z" fill="#001A49"/>
<path d="M104.638 15.6654C104.678 16.4419 104.566 17.2189 104.305 17.9516C104.045 18.6843 103.642 19.3583 103.12 19.9348C102.598 20.5114 101.968 20.979 101.265 21.311C100.561 21.6429 99.7996 21.8326 99.0229 21.869C98.3695 21.9046 97.7164 21.7944 97.1109 21.5464C96.5053 21.2985 95.9625 20.919 95.5218 20.4354V26.2391H91.9976V9.79145H95.5218V10.8955C95.9626 10.4121 96.5055 10.0328 97.111 9.78505C97.7166 9.5373 98.3696 9.42729 99.0229 9.463C99.7996 9.49929 100.561 9.6888 101.265 10.0206C101.968 10.3524 102.598 10.82 103.12 11.3964C103.642 11.9729 104.045 12.6468 104.305 13.3794C104.566 14.1121 104.678 14.889 104.638 15.6654ZM101.113 15.6654C101.1 15.1154 100.924 14.5817 100.608 14.131C100.292 13.6804 99.8509 13.3328 99.3387 13.1319C98.8265 12.931 98.2664 12.8856 97.7285 13.0014C97.1906 13.1173 96.6989 13.3891 96.3147 13.7831C95.9306 14.177 95.6712 14.6755 95.569 15.2161C95.4668 15.7567 95.5263 16.3155 95.7401 16.8225C95.9539 17.3295 96.3124 17.7621 96.7709 18.0663C97.2294 18.3705 97.7674 18.5327 98.3176 18.5327C98.6954 18.5497 99.0725 18.4866 99.4242 18.3476C99.776 18.2085 100.094 17.9967 100.358 17.7259C100.622 17.4551 100.826 17.1315 100.956 16.7764C101.086 16.4213 101.14 16.0427 101.113 15.6654Z" fill="#001A49"/>
<path d="M115.515 18.0129C115.515 20.7154 113.166 21.8667 110.628 21.8667C109.603 21.9595 108.573 21.7425 107.673 21.2439C106.772 20.7452 106.042 19.9879 105.577 19.0697L108.631 17.3319C108.755 17.7562 109.021 18.1251 109.385 18.3769C109.748 18.6286 110.187 18.7479 110.628 18.7148C111.474 18.7148 111.896 18.4555 111.896 17.9864C111.896 16.6934 106.116 17.3756 106.116 13.3098C106.116 10.7491 108.277 9.45724 110.726 9.45724C111.644 9.42841 112.554 9.64637 113.36 10.0884C114.165 10.5305 114.838 11.1805 115.307 11.9707L112.3 13.5922C112.169 13.2838 111.949 13.021 111.669 12.8365C111.389 12.6521 111.061 12.5542 110.726 12.555C110.115 12.555 109.739 12.7855 109.739 13.213C109.736 14.5614 115.515 13.6683 115.515 18.0129Z" fill="#001A49"/>
<path d="M128.396 9.79126V21.5392H124.872V20.4329C124.465 20.9202 123.948 21.3042 123.364 21.5534C122.78 21.8026 122.145 21.9099 121.512 21.8665C119.139 21.8665 117.119 20.1747 117.119 17.0021V9.79126H120.643V16.4881C120.613 16.7681 120.645 17.0512 120.736 17.3177C120.827 17.5842 120.974 17.8276 121.169 18.0311C121.364 18.2346 121.6 18.3933 121.862 18.496C122.125 18.5987 122.406 18.643 122.687 18.6259C123.979 18.6259 124.877 17.8745 124.877 16.2057V9.79126H128.396Z" fill="#001A49"/>
<path d="M148.596 14.325V21.5393H145.072V14.6315C145.072 13.4572 144.507 12.7047 143.38 12.7047C142.205 12.7047 141.548 13.5275 141.548 14.9139V21.5393H138.023V14.6315C138.023 13.4572 137.459 12.7047 136.331 12.7047C135.156 12.7047 134.498 13.5275 134.498 14.9139V21.5393H130.974V9.79131H134.504V10.8677C134.869 10.3884 135.349 10.0083 135.899 9.76207C136.449 9.51586 137.052 9.4114 137.653 9.45825C138.256 9.42876 138.857 9.55603 139.396 9.82767C139.935 10.0993 140.395 10.5061 140.731 11.0083C141.121 10.4828 141.639 10.065 142.235 9.79392C142.831 9.52283 143.486 9.40735 144.139 9.45825C146.835 9.46286 148.596 11.3886 148.596 14.325Z" fill="#001A49"/>
<path d="M151.582 9.71852C153.027 9.71852 154.198 8.54728 154.198 7.10249C154.198 5.65769 153.027 4.48645 151.582 4.48645C150.137 4.48645 148.966 5.65769 148.966 7.10249C148.966 8.54728 150.137 9.71852 151.582 9.71852Z" fill="#001A49"/>
<path d="M37.4194 4.38745H40.9447V21.5392H37.4194V4.38745ZM42.9407 15.6652C42.9368 14.4336 43.2985 13.2285 43.98 12.2025C44.6614 11.1765 45.632 10.3758 46.7688 9.90181C47.9055 9.42779 49.1574 9.30175 50.3659 9.53965C51.5744 9.77756 52.6851 10.3687 53.5573 11.2383C54.4296 12.1078 55.0243 13.2166 55.266 14.4243C55.5077 15.632 55.3856 16.8843 54.9152 18.0226C54.4447 19.1609 53.6471 20.1339 52.6233 20.8186C51.5995 21.5033 50.3955 21.8688 49.1639 21.8688C48.3459 21.8776 47.5343 21.7232 46.7766 21.4148C46.0189 21.1064 45.3302 20.6501 44.7509 20.0725C44.1715 19.495 43.713 18.8078 43.4022 18.0511C43.0914 17.2943 42.9345 16.4833 42.9407 15.6652ZM51.8698 15.6652C51.856 15.1339 51.6858 14.6185 51.3806 14.1834C51.0753 13.7484 50.6486 13.4129 50.1537 13.2191C49.6589 13.0253 49.1178 12.9817 48.5983 13.0938C48.0788 13.2059 47.6039 13.4687 47.2329 13.8493C46.862 14.2299 46.6115 14.7114 46.5128 15.2336C46.4141 15.7558 46.4715 16.2956 46.678 16.7853C46.8844 17.275 47.2307 17.693 47.6735 17.987C48.1162 18.2809 48.6359 18.4378 49.1673 18.438C49.5313 18.4484 49.8934 18.3832 50.2309 18.2467C50.5684 18.1101 50.8739 17.9051 51.1283 17.6446C51.3826 17.3841 51.5802 17.0737 51.7086 16.7331C51.8371 16.3924 51.8935 16.0288 51.8744 15.6652H51.8698ZM69.4433 9.78778V20.9492C69.4433 24.8963 66.3652 26.5638 63.2409 26.5638C62.1412 26.6468 61.0398 26.4255 60.0575 25.924C59.0753 25.4225 58.25 24.6602 57.6723 23.7208L60.679 21.9817C60.9217 22.472 61.3083 22.8766 61.7872 23.1412C62.266 23.4059 62.8142 23.518 63.3585 23.4626C63.7058 23.5101 64.0594 23.4789 64.3932 23.3714C64.7269 23.2639 65.0322 23.0829 65.2866 22.8416C65.541 22.6004 65.738 22.3051 65.8631 21.9776C65.9881 21.65 66.038 21.2986 66.0091 20.9492V19.8682C65.5962 20.373 65.0709 20.7741 64.4751 21.0393C63.8793 21.3044 63.2297 21.4263 62.5783 21.3951C61.0276 21.347 59.5565 20.6971 58.4767 19.5831C57.3968 18.4692 56.7929 16.9787 56.7929 15.4272C56.7929 13.8758 57.3968 12.3853 58.4767 11.2713C59.5565 10.1574 61.0276 9.50753 62.5783 9.45934C63.2297 9.42816 63.8793 9.55005 64.4751 9.81523C65.0709 10.0804 65.5962 10.4815 66.0091 10.9863V9.78778H69.4433ZM66.0137 15.4267C66.0369 14.8592 65.8899 14.2978 65.5915 13.8147C65.2931 13.3315 64.857 12.9486 64.3393 12.7152C63.8216 12.4818 63.2459 12.4087 62.6862 12.5051C62.1266 12.6015 61.6085 12.8631 61.1988 13.2563C60.789 13.6495 60.5062 14.1562 60.3867 14.7114C60.2672 15.2666 60.3166 15.8449 60.5283 16.3718C60.7401 16.8987 61.1047 17.3503 61.5751 17.6683C62.0456 17.9864 62.6004 18.1565 63.1683 18.1568C63.5386 18.1828 63.9102 18.1311 64.2593 18.0049C64.6084 17.8786 64.9272 17.6808 65.1952 17.4239C65.4632 17.1671 65.6744 16.857 65.8154 16.5136C65.9564 16.1703 66.0239 15.8012 66.0137 15.4301V15.4267ZM71.4394 15.6572C71.4355 14.4255 71.7972 13.2204 72.4786 12.1944C73.1601 11.1685 74.1306 10.3678 75.2674 9.89374C76.4042 9.41972 77.6561 9.29368 78.8646 9.53159C80.073 9.76949 81.1837 10.3606 82.056 11.2302C82.9283 12.0997 83.5229 13.2085 83.7646 14.4163C84.0064 15.624 83.8843 16.8762 83.4138 18.0145C82.9434 19.1528 82.1458 20.1259 81.122 20.8106C80.0981 21.4952 78.8942 21.8607 77.6625 21.8607C76.8452 21.8695 76.0343 21.7154 75.2771 21.4075C74.52 21.0996 73.8317 20.644 73.2524 20.0673C72.6732 19.4906 72.2145 18.8044 71.9032 18.0486C71.592 17.2928 71.4343 16.4826 71.4394 15.6652V15.6572ZM80.3685 15.6572C80.3549 15.1255 80.1848 14.6097 79.8795 14.1743C79.5742 13.7388 79.1473 13.4031 78.6522 13.2091C78.1571 13.015 77.6157 12.9713 77.0958 13.0834C76.576 13.1955 76.1008 13.4584 75.7296 13.8392C75.3584 14.2201 75.1078 14.7019 75.0091 15.2245C74.9104 15.747 74.968 16.2871 75.1746 16.7771C75.3813 17.2671 75.7279 17.6852 76.1711 17.9792C76.6142 18.2732 77.1342 18.43 77.666 18.4299C78.0288 18.4396 78.3897 18.3742 78.7261 18.2378C79.0625 18.1015 79.3671 17.8971 79.6208 17.6376C79.8745 17.378 80.0719 17.0688 80.2005 16.7294C80.3292 16.3901 80.3864 16.0277 80.3685 15.6652V15.6572Z" fill="#001A49"/>
</svg>
